<?xml version="1.0" encoding="UTF-8"?>
<svg version="1.1" xmlns="http://www.w3.org/2000/svg" width="512" height="512">
<path d="M0 0 C63.36 0 126.72 0 192 0 C192 63.36 192 126.72 192 192 C88.05 192 -15.9 192 -123 192 C-124.6268054 183.86597301 -125.87419078 175.96561066 -126.8125 167.75 C-126.97169922 166.50992188 -127.13089844 165.26984375 -127.29492188 163.9921875 C-127.49891602 162.19394531 -127.49891602 162.19394531 -127.70703125 160.359375 C-127.90002808 158.74240723 -127.90002808 158.74240723 -128.09692383 157.09277344 C-127.97873712 153.32151581 -126.92525106 151.21949812 -125 148 C-124.65944077 147.29177094 -124.31888153 146.58354187 -123.96800232 145.85385132 C-120.73389436 142.8073329 -117.08484361 143.4466144 -112.80615234 143.48583984 C-111.3934053 143.47515221 -111.3934053 143.47515221 -109.95211792 143.46424866 C-106.82984673 143.44490819 -103.7082491 143.45326132 -100.5859375 143.4609375 C-98.41459156 143.45103309 -96.24325403 143.43909282 -94.07192993 143.42520142 C-88.34442596 143.39276501 -82.61711314 143.38244223 -76.88952637 143.37835693 C-67.7432272 143.36962076 -58.59708599 143.33395767 -49.45091629 143.2861824 C-46.2620069 143.27363839 -43.07329787 143.27435257 -39.8843689 143.27645874 C-37.91298268 143.26987288 -35.94159781 143.26286554 -33.97021484 143.25537109 C-33.09091309 143.25949509 -32.21161133 143.26361908 -31.30566406 143.26786804 C-22.33441253 143.20986964 -14.19063704 142.23389234 -7.59375 135.58203125 C-0.49581618 127.55558864 -0.84785838 118.46530042 -0.79467773 108.30322266 C-0.78464501 107.11303717 -0.77461229 105.92285168 -0.76427555 104.69659996 C-0.7329487 100.85244046 -0.70814327 97.00827063 -0.68359375 93.1640625 C-0.66518495 90.78735014 -0.64634799 88.41064106 -0.6270752 86.03393555 C-0.55869378 77.23099582 -0.49859859 68.42799329 -0.4375 59.625 C-0.293125 39.94875 -0.14875 20.2725 0 0 Z " fill="#000000" transform="translate(248,208)"/>
<path d="M0 0 C0.33 0 0.66 0 1 0 C1.00879936 0.94721169 1.00879936 0.94721169 1.01777649 1.91355896 C1.08196769 8.51679777 1.16645274 15.11956077 1.26245117 21.72241211 C1.29559912 24.18296006 1.32366222 26.6435822 1.34643555 29.10424805 C1.38016755 32.65184997 1.43249428 36.19877824 1.48828125 39.74609375 C1.49467117 40.8370787 1.5010611 41.92806366 1.50764465 43.05210876 C1.67774376 51.9926752 2.7554353 59.51250153 9.33398438 65.95898438 C9.86314453 66.44689453 10.39230469 66.93480469 10.9375 67.4375 C11.46279297 67.95248047 11.98808594 68.46746094 12.52929688 68.99804688 C17.4241916 73.69690076 21.11918413 75.76071978 27.89453125 75.640625 C37.04310885 73.75337126 45.40320793 67.07454474 53.0625 62 C57.19948249 59.34538455 60.02534777 57.60202782 65 58 C68 60 68 60 70 63 C69.77022807 68.41218081 68.07765515 72.25546254 65.21875 76.73828125 C64.84520386 77.34512253 64.47165771 77.95196381 64.08679199 78.57719421 C62.90228556 80.49611009 61.70169355 82.40431098 60.5 84.3125 C59.69289399 85.61193744 58.88689333 86.91206212 58.08203125 88.21289062 C56.61428914 90.58432884 55.13915157 92.95043626 53.65820312 95.3137207 C51.22375906 99.25750576 50.30424731 101.30366936 51 106 C52.54438423 108.08000882 54.26491782 109.89759624 56.046875 111.77734375 C65.0544343 122.02794624 65.66197357 131.62480222 65.17041016 144.66455078 C64.55450674 153.10542762 59.63618542 159.37914803 54.8046875 166.04296875 C50.74970972 172.68716395 50.82297943 178.10776949 51.71240234 185.59643555 C51.81085135 186.51356921 51.90930035 187.43070288 52.01073265 188.37562847 C52.32472265 191.25245665 52.65961841 194.12618447 53 197 C53.15351299 198.32526892 53.15351299 198.32526892 53.31012726 199.67731094 C53.92903818 205.00284686 54.58083361 210.32383039 55.24861526 215.64344215 C55.61317043 218.54956621 55.97350968 221.45618822 56.33285522 224.36296082 C57.35291941 232.60865241 58.38013974 240.85344657 59.41015625 249.09790039 C60.04548946 254.18553513 60.67608785 259.27373931 61.30387497 264.36231041 C61.54203194 266.28457269 61.78203437 268.20660731 62.02397537 270.12839699 C62.36106222 272.80617991 62.69214566 275.48464465 63.02197266 278.16333008 C63.17154671 279.33304855 63.17154671 279.33304855 63.32414246 280.52639771 C63.41380783 281.26432053 63.50347321 282.00224335 63.59585571 282.76252747 C63.71363593 283.70608959 63.71363593 283.70608959 63.83379555 284.66871357 C64.07872187 288.10420162 64 291.55579225 64 295 C40.57 295 17.14 295 -7 295 C-5.700625 283.13740234 -5.700625 283.13740234 -4.375 271.03515625 C-3.82759243 266.01763493 -3.2804707 261.00008572 -2.734375 255.98242188 C-1.86802101 248.02239697 -1.00062514 240.06249694 -0.12695312 232.10327148 C0.5775399 225.68467046 1.27730034 219.26556937 1.97381592 212.84609795 C2.24005495 210.39998507 2.50798376 207.95405549 2.77764893 205.50831795 C3.15575293 202.0764127 3.52778294 198.64389833 3.8984375 195.21118164 C4.01064636 194.20560715 4.12285522 193.20003265 4.23846436 192.16398621 C6.46462476 171.29922783 1.12385805 155.70249689 -11.046875 138.8125 C-14.65381806 133.61850199 -15.33658257 129.83645933 -15.46508789 123.52001953 C-15.48947433 122.66363892 -15.51386078 121.8072583 -15.53898621 120.92492676 C-15.77966832 111.82681805 -15.88123504 102.72511703 -15.97485352 93.62451172 C-16.02312078 89.35041757 -16.11243334 85.08050893 -16.24145508 80.80810547 C-17.12992147 50.68724998 -13.59482308 27.07495152 0 0 Z " fill="#000000" transform="translate(55,185)"/>
<path d="M0 0 C31.68 0 63.36 0 96 0 C96 60.72 96 121.44 96 184 C70.26 184 44.52 184 18 184 C18.85678215 179.71608926 19.43894465 177.86960128 21.6171875 174.34765625 C22.14183594 173.48849609 22.66648437 172.62933594 23.20703125 171.74414062 C24.03267578 170.41672852 24.03267578 170.41672852 24.875 169.0625 C33.72087298 155.73475893 33.72087298 155.73475893 34.375 140.30859375 C32.0320339 133.75805103 29.31350176 130.3705667 23.1875 127.00390625 C17.78200363 124.55181616 12.72385495 124.63594407 7 126 C4.69 126.99 2.38 127.98 0 129 C0 86.43 0 43.86 0 0 Z M23.625 43.3125 C16.99209408 51.99934553 15.87448172 60.13932875 17 71 C18.84811593 79.13608431 23.39649035 85.87396811 30.3125 90.5703125 C38.93569178 95.53432092 48.04089411 96.57815789 57.859375 94.3515625 C66.27844331 91.29246004 72.04665475 86.24132912 76.5 78.5 C80.43869381 69.91235612 80.57041413 60.46873187 77.4375 51.5625 C72.79474944 41.87537686 65.97783687 36.77433881 56 33 C44.12476702 29.76304133 31.83773283 34.43944694 23.625 43.3125 Z " fill="#000000" transform="translate(104,104)"/>
<path d="M0 0 C28.61532225 -0.09336027 57.23062175 -0.16393848 85.84606552 -0.20724869 C99.13213684 -0.22789113 112.41809185 -0.25604388 125.70410156 -0.30175781 C137.28153363 -0.34157402 148.85889726 -0.36742057 160.43639588 -0.37635398 C166.56900899 -0.38157754 172.70142628 -0.39388987 178.83397675 -0.42292023 C184.60247491 -0.4500068 190.37069599 -0.45845863 196.13925171 -0.45243073 C198.25971226 -0.45353399 200.38018178 -0.46152783 202.50058746 -0.4768219 C205.38971243 -0.49664385 208.27778318 -0.49196755 211.16693115 -0.48101807 C212.01128841 -0.49266943 212.85564567 -0.5043208 213.72558951 -0.51632524 C217.09138616 -0.48170627 219.56089547 -0.24622306 222.52032089 1.41324234 C224.83326879 5.45671073 224.5509428 9.28737679 224.50793457 13.86914062 C224.51729451 15.38911526 224.51729451 15.38911526 224.52684355 16.93979645 C224.54283681 20.34551554 224.53014413 23.75052521 224.51757812 27.15625 C224.52299641 29.59367288 224.5301174 32.03109249 224.53881836 34.46850586 C224.55519058 40.40769244 224.55275802 46.34669383 224.5411678 52.28587532 C224.5321387 57.11223129 224.53090719 61.93853059 224.53526306 66.76489258 C224.53587599 67.45148531 224.53648893 68.13807805 224.53712043 68.84547663 C224.53839932 70.24022358 224.53969617 71.63497052 224.5410108 73.02971745 C224.55242032 86.11202869 224.53929711 99.19422786 224.51780933 112.27652073 C224.49993797 123.50471578 224.50304198 134.73274543 224.52148438 145.9609375 C224.54288457 158.99603754 224.55132165 172.03103933 224.53903532 185.06615448 C224.53776111 186.45580545 224.53650362 187.84545643 224.53526306 189.23510742 C224.53433741 190.26074224 224.53433741 190.26074224 224.53339306 191.30709696 C224.52993759 196.12833926 224.53577271 200.9495193 224.54518127 205.77075195 C224.55756322 212.25831861 224.54876314 218.74564602 224.52560425 225.23318481 C224.52030272 227.61808756 224.52185544 230.00301653 224.53065491 232.38790894 C224.54153657 235.63591827 224.52793528 238.88291509 224.50793457 242.13085938 C224.5213189 243.55672237 224.5213189 243.55672237 224.53497362 245.01139069 C224.51932714 246.31545994 224.51932714 246.31545994 224.50336456 247.64587402 C224.50271515 248.39555199 224.50206574 249.14522995 224.50139666 249.91762543 C223.76944493 252.95752933 222.47423129 254.13233929 220 256 C217.33067876 256.49794465 217.33067876 256.49794465 214.21631336 256.49498463 C212.43398547 256.50785597 212.43398547 256.50785597 210.61565095 256.52098733 C209.30895297 256.51001809 208.00225498 256.49904884 206.65596008 256.48774719 C205.2549092 256.49020705 203.85386048 256.49442126 202.45281953 256.50024194 C198.59849631 256.51114507 194.74460426 256.49704174 190.89032304 256.47892153 C186.73559092 256.46372835 182.58089538 256.47157622 178.42614746 256.47660828 C170.2861563 256.48284046 162.14633474 256.46782947 154.00637618 256.44588266 C144.53523619 256.42122566 135.0641275 256.41827932 125.59296014 256.41647889 C108.70085233 256.41260054 91.80882111 256.3901183 74.91674805 256.35668945 C58.50854167 256.32424447 42.10037573 256.30300764 25.69213867 256.29516602 C24.68116347 256.29468052 23.67018826 256.29419503 22.62857745 256.29369483 C18.56546688 256.29176631 14.50235631 256.28985418 10.43924572 256.28797873 C-5.17606434 256.2804546 -20.79136772 256.26482508 -36.40666961 256.24748212 C-41.12990277 256.24224003 -45.85313578 256.2373072 -50.57637 256.2331202 C-60.50962908 256.22421242 -70.44286871 256.21246947 -80.37611064 256.19155417 C-84.48552975 256.18293445 -88.59493531 256.17586082 -92.70436287 256.17303848 C-96.46001552 256.1703834 -100.21562902 256.1631284 -103.97126601 256.15204801 C-105.98646596 256.14729012 -108.00167562 256.14744682 -110.01688117 256.14772969 C-111.19727652 256.14327185 -112.37767187 256.13881401 -113.59383678 256.13422108 C-114.62109031 256.13243251 -115.64834383 256.13064394 -116.70672625 256.12880117 C-119 256 -119 256 -120 255 C-120.23653523 252.47403741 -120.42173692 249.96892793 -120.5625 247.4375 C-120.60568359 246.72658203 -120.64886719 246.01566406 -120.69335938 245.28320312 C-120.79971777 243.52238088 -120.90038846 241.7612168 -121 240 C-119.98400851 239.99796521 -119.98400851 239.99796521 -118.94749194 239.99588931 C-78.82323731 239.91527791 -38.69901801 239.82433925 1.42518212 239.71994839 C6.24056718 239.70742919 11.05595246 239.69499646 15.87133789 239.68261719 C16.83001368 239.68015119 17.78868947 239.6776852 18.77641604 239.67514448 C34.30885851 239.63539684 49.84130828 239.60265838 65.37377199 239.57250018 C81.30586292 239.54141042 97.23792284 239.50281166 113.16997892 239.45720994 C123.00466859 239.42929813 132.8393355 239.40727678 142.67405418 239.39273749 C149.41372719 239.38221331 156.1533562 239.36440996 162.8929961 239.34083296 C166.78416502 239.32743716 170.67527215 239.31729828 174.56646538 239.31578636 C178.78183304 239.31406479 182.996999 239.29703956 187.21232605 239.2784729 C189.06397134 239.281375 189.06397134 239.281375 190.95302361 239.28433573 C192.08114883 239.27687024 193.20927406 239.26940475 194.37158489 239.26171303 C195.3448081 239.25943471 196.31803131 239.25715638 197.32074612 239.25480902 C200.24090795 238.97708858 202.38093899 238.30954329 205 237 C207.57382366 232.83942313 207.28072337 228.28171336 207.25396729 223.53588867 C207.25708727 222.68576549 207.26020725 221.8356423 207.26342177 220.9597578 C207.27139619 218.11242416 207.26508027 215.26530396 207.25878906 212.41796875 C207.26149917 210.37610754 207.26506021 208.3342473 207.26940918 206.29238892 C207.27853309 200.74704724 207.27498889 195.20177991 207.26865101 189.65643692 C207.26359105 183.85583545 207.26828245 178.05524039 207.27142334 172.25463867 C207.27506299 162.51317195 207.2702639 152.77173555 207.26074219 143.03027344 C207.24985765 131.76436146 207.25338323 120.49852188 207.264395 109.23261166 C207.27346788 99.56371662 207.27475314 89.89484339 207.26951766 80.22594547 C207.26639798 74.44947689 207.2659886 68.67304233 207.27259064 62.89657593 C207.27836346 57.46620669 207.27436828 52.03593088 207.26280212 46.60557175 C207.26015521 44.61132335 207.26092116 42.6170671 207.26532745 40.62282181 C207.27078304 37.90314511 207.26394852 35.18376883 207.25396729 32.46411133 C207.25842873 31.67276889 207.26289017 30.88142645 207.26748681 30.06610394 C207.23839663 25.98651369 207.17828151 22.52118437 205 19 C200.9008626 16.4874134 196.47603623 16.7096949 191.80595398 16.7215271 C190.98497138 16.7157347 190.16398879 16.7099423 189.31812793 16.70397437 C186.56971139 16.68698162 183.82146286 16.68409848 181.07299805 16.68115234 C179.10183806 16.67185367 177.13068201 16.66168509 175.15953064 16.65071106 C169.80876606 16.62339017 164.45802785 16.60825541 159.10721183 16.59528303 C153.5151134 16.57966168 147.92306888 16.55286827 142.33100891 16.5272522 C131.74182146 16.48044681 121.15262388 16.44371119 110.56338578 16.41057932 C98.50784316 16.3723704 86.45235465 16.322957 74.39685762 16.27259517 C49.59794442 16.16924912 24.79899731 16.08039482 0 16 C0 10.72 0 5.44 0 0 Z " fill="#000000" transform="translate(248,176)"/>
<path d="M0 0 C1.27866943 -0.0112793 2.55733887 -0.02255859 3.87475586 -0.03417969 C5.28955305 -0.02640266 6.704348 -0.01821 8.11914062 -0.00964355 C9.61076542 -0.01506435 11.10238485 -0.02218677 12.59399414 -0.03088379 C16.6436169 -0.04912547 20.69283223 -0.04204633 24.74246216 -0.02936745 C28.97936099 -0.01924407 33.21622481 -0.02863128 37.453125 -0.03491211 C44.56842312 -0.04219046 51.68355521 -0.03259594 58.79882812 -0.0135498 C67.02641862 0.00821938 75.25361265 0.00116814 83.48119354 -0.02085543 C90.54373317 -0.03900413 97.6061534 -0.04157037 104.6687088 -0.03110075 C108.88752237 -0.02486287 113.10614956 -0.02403817 117.32495117 -0.0372467 C121.29119435 -0.04879699 125.25692611 -0.04079505 129.22311401 -0.01766968 C130.6791804 -0.01237811 132.1352898 -0.01390409 133.59133911 -0.02272034 C135.57780425 -0.03363977 137.56436338 -0.01752243 139.55078125 0 C141.21880798 0.00226215 141.21880798 0.00226215 142.92053223 0.00457001 C145.77539062 0.50793457 145.77539062 0.50793457 148.1326828 1.90387726 C150.71274126 5.99384383 150.32642126 9.9393239 150.2833252 14.68078613 C150.28956516 15.72677097 150.29580512 16.77275581 150.30223417 17.85043716 C150.31823015 21.36670507 150.30553362 24.88228612 150.29296875 28.39855957 C150.29838691 30.91479905 150.30550783 33.43103536 150.31420898 35.94726562 C150.33058249 42.0789806 150.32814805 48.21043986 150.31655842 54.34215832 C150.3075299 59.32488297 150.30629756 64.30755272 150.31065369 69.2902832 C150.31126662 69.99907883 150.31187955 70.70787446 150.31251106 71.43814874 C150.31378994 72.87799169 150.31508679 74.31783463 150.31640142 75.75767756 C150.32781137 89.26346842 150.31468706 102.76915074 150.29319996 116.2749238 C150.27532856 127.86697134 150.27843256 139.45885867 150.296875 151.05090332 C150.31827444 164.50790419 150.32671269 177.9648099 150.31442595 191.42182541 C150.31315173 192.85641224 150.31189425 194.29099908 150.31065369 195.72558594 C150.30972803 196.78439008 150.30972803 196.78439008 150.30878368 197.86458421 C150.30532799 202.84211906 150.31116382 207.81959362 150.3205719 212.79711914 C150.33295289 219.49483668 150.3241556 226.19220434 150.30099487 232.88990784 C150.29569285 235.3522135 150.29724689 237.81454456 150.30604553 240.27684021 C150.3169252 243.62993589 150.30332816 246.98205038 150.2833252 250.33508301 C150.29224808 251.31678593 150.30117097 252.29848885 150.31036425 253.30994034 C150.234503 259.83532841 150.234503 259.83532841 147.99674606 263.11367416 C145.63167105 264.59814189 144.48557712 265.00371097 141.72576904 264.98895264 C140.53112534 264.99720062 140.53112534 264.99720062 139.31234741 265.00561523 C138.44775909 264.99123413 137.58317078 264.97685303 136.69238281 264.96203613 C135.3162532 264.96291229 135.3162532 264.96291229 133.912323 264.96380615 C130.88191811 264.96102088 127.85249854 264.92990765 124.82226562 264.89855957 C122.7204848 264.89109877 120.61869701 264.88540508 118.51690674 264.88140869 C112.98637672 264.86613981 107.45626724 264.82684685 101.92590332 264.78259277 C96.28204029 264.74166732 90.63810928 264.72340348 84.99414062 264.70324707 C73.92103925 264.66035409 62.84824991 264.59208731 51.77539062 264.50793457 C51.87078125 263.62234863 51.96617187 262.7367627 52.06445312 261.82434082 C52.96365789 251.7762504 52.25105584 242.4717237 50.77539062 232.50793457 C51.70389328 232.49984772 52.63239594 232.49176086 53.58903503 232.48342896 C62.34370257 232.405455 71.09821691 232.3181557 79.85268688 232.22040749 C84.35333874 232.17048361 88.85396756 232.12415321 93.35473633 232.08605957 C97.69906252 232.0491574 102.04319424 232.00278403 106.3873539 231.94987106 C108.04388323 231.93135332 109.70045422 231.91623569 111.35704613 231.90459061 C113.67923223 231.88768319 116.00097549 231.85863778 118.32299805 231.82678223 C119.34799156 231.82354195 119.34799156 231.82354195 120.39369202 231.82023621 C124.25568258 231.75265366 127.42729126 231.51219936 130.77539062 229.50793457 C133.079327 225.24469443 133.05710046 221.07477052 133.02935791 216.34753418 C133.03247789 215.53007941 133.03559787 214.71262465 133.0388124 213.87039852 C133.04678418 211.13361825 133.04047194 208.39706021 133.03417969 205.66027832 C133.03688991 203.69723379 133.04045102 201.73419027 133.0447998 199.77114868 C133.05392231 194.4406752 133.05038009 189.11027908 133.04404163 183.77980423 C133.03898095 178.20342041 133.04367328 172.62704325 133.04681396 167.05065918 C133.0504534 157.6858196 133.04565508 148.32101155 133.03613281 138.95617676 C133.02524832 128.12651638 133.02877391 117.29693131 133.03978562 106.46727276 C133.04885911 97.17204741 133.05014347 87.87684475 133.04490829 78.5816164 C133.04178893 73.02871275 133.04137831 67.4758445 133.04798126 61.92294312 C133.05375497 56.70269111 133.0497573 51.48253627 133.03819275 46.26229477 C133.03554631 44.34544918 133.03631098 42.42859543 133.04071808 40.51175308 C133.04617554 37.89716965 133.03933692 35.28289845 133.02935791 32.66833496 C133.03381935 31.90812011 133.0382808 31.14790525 133.04287744 30.36465359 C133.01309187 26.34669133 132.90396144 22.97992293 130.77539062 19.50793457 C127.49442679 17.67721337 124.67323188 17.25740745 120.95581055 17.25396729 C119.54276138 17.24550781 119.54276138 17.24550781 118.10116577 17.23687744 C116.56898911 17.24295013 116.56898911 17.24295013 115.00585938 17.24914551 C113.9207608 17.24564087 112.83566223 17.24213623 111.71768188 17.23852539 C108.13268629 17.22972661 104.54788821 17.23555082 100.96289062 17.24230957 C98.47094688 17.24096239 95.97900339 17.23902142 93.48706055 17.23651123 C87.59639769 17.23318486 81.70580644 17.24018216 75.81515408 17.25081277 C71.11990446 17.25832192 66.42473869 17.25566569 61.72949219 17.24719238 C55.25279305 17.2356048 48.77617496 17.23377892 42.29946899 17.24030304 C39.83069846 17.24163769 37.36192447 17.23999827 34.89315796 17.23534393 C31.44365277 17.23026791 27.99440768 17.2380044 24.54492188 17.24914551 C23.52347076 17.24509705 22.50201965 17.24104858 21.44961548 17.23687744 C20.03656631 17.24533691 20.03656631 17.24533691 18.5949707 17.25396729 C17.78014725 17.25472134 16.96532379 17.25547539 16.12580872 17.25625229 C13.27669612 17.56133467 11.28613348 18.10698338 8.77539062 19.50793457 C6.64983613 23.17815713 6.52681828 26.48848927 6.53056335 30.66970825 C6.52465683 32.52883598 6.52465683 32.52883598 6.51863098 34.42552185 C6.52423935 35.79104674 6.5299969 37.15657103 6.53588867 38.52209473 C6.5347753 39.96622313 6.53271672 41.41035107 6.52978516 42.85447693 C6.52506918 45.9592402 6.52617639 49.0639278 6.5315609 52.16868973 C6.53917282 57.07629091 6.52851394 61.98374636 6.51435852 66.8913269 C6.47662126 80.84459014 6.45845077 94.79778663 6.4699707 108.75109863 C6.47617936 116.4612224 6.46464955 124.1711106 6.43352538 131.88117635 C6.41483473 136.76198895 6.41822256 141.64213611 6.437693 146.52293801 C6.44455903 149.55512484 6.43064983 152.58694803 6.41074371 155.61906624 C6.40568311 157.02718124 6.40921576 158.43535667 6.42187691 159.84342384 C6.43790776 161.76227074 6.42044932 163.68131118 6.40116882 165.60012817 C6.40091721 167.21228179 6.40091721 167.21228179 6.40066051 168.85700417 C5.77539062 171.50793457 5.77539062 171.50793457 3.48627949 173.43967247 C0.77539062 174.50793457 0.77539062 174.50793457 -1.30608654 174.35714436 C-5.35106936 172.56668405 -7.94898448 170.33372596 -10.22460938 166.50793457 C-11.25981951 161.3140683 -11.15214732 156.17413877 -11.08276367 150.90563965 C-11.08734149 149.31504719 -11.09494342 147.724461 -11.10533142 146.13389587 C-11.12438144 141.82793003 -11.09976604 137.52322612 -11.06609321 133.2173903 C-11.03715171 128.7082641 -11.04484252 124.19918475 -11.04756165 119.68998718 C-11.04657262 112.12168526 -11.01817251 104.55387413 -10.97241211 96.98571777 C-10.91973966 88.23488129 -10.90574496 79.4846555 -10.91344517 70.73367769 C-10.92035803 62.31182016 -10.90450975 53.89016933 -10.876688 45.46835899 C-10.8649809 41.88509241 -10.86044186 38.30192227 -10.86148643 34.71863747 C-10.86136066 30.50196655 -10.84105962 26.28585828 -10.80509377 22.06934547 C-10.7950047 20.5213818 -10.79170003 18.97335699 -10.79563904 17.42536545 C-10.79983986 15.31363331 -10.77946616 13.20352966 -10.75273132 11.09199524 C-10.74732677 9.91013043 -10.74192221 8.72826563 -10.73635387 7.51058674 C-10.22460938 4.50793457 -10.22460938 4.50793457 -8.58063984 2.12817669 C-5.53610759 0.0344519 -3.68321807 0.00499513 0 0 Z " fill="#000000" transform="translate(82.224609375,71.4920654296875)"/>
<path d="M0 0 C0.98870087 0.00081573 0.98870087 0.00081573 1.99737549 0.00164795 C12.97851814 0.04318906 22.9941372 0.99005212 33.4375 4.375 C34.4598877 4.69645996 34.4598877 4.69645996 35.50292969 5.02441406 C49.7198787 9.6034314 62.10057639 16.58859702 73.4375 26.375 C74.51064453 27.28378906 74.51064453 27.28378906 75.60546875 28.2109375 C77.22529274 29.58827287 78.83303005 30.97980874 80.4375 32.375 C76.4955583 37.25549925 72.31799925 41.4330583 67.4375 45.375 C66.8290625 44.75753906 66.220625 44.14007813 65.59375 43.50390625 C54.7372062 33.01456908 41.84516617 25.91635337 27.4375 21.375 C26.44621094 21.05660156 25.45492187 20.73820312 24.43359375 20.41015625 C-1.27830232 13.56416674 -27.70672258 19.21160358 -50.3918457 32.06347656 C-56.50648703 35.71497918 -61.52898693 40.36203188 -66.5625 45.375 C-71.44299925 41.4330583 -75.6205583 37.25549925 -79.5625 32.375 C-57.8608461 11.23503596 -30.33558477 -0.04240582 0 0 Z " fill="#000000" transform="translate(351.5625,15.625)"/>
<path d="M0 0 C1.2549406 1.05665999 2.5053566 2.11873012 3.75 3.1875 C5.07662408 4.1963837 6.40816566 5.1989362 7.75 6.1875 C6.21356148 9.86819887 3.96849055 12.17525204 1.125 14.9375 C0.30773437 15.73671875 -0.50953125 16.5359375 -1.3515625 17.359375 C-1.97804688 17.96265625 -2.60453125 18.5659375 -3.25 19.1875 C-6.59113713 17.6820681 -9.19726355 15.70856299 -12.0625 13.4375 C-25.63194209 3.55247596 -41.30146017 0.02668599 -57.875 1.6875 C-69.62214477 3.65782789 -79.61460915 8.02949435 -88.98046875 15.453125 C-91.01620332 17.00883266 -92.9224617 18.1387701 -95.25 19.1875 C-97.08947337 17.40177748 -98.92157741 15.60947551 -100.75 13.8125 C-101.27464844 13.30460937 -101.79929687 12.79671875 -102.33984375 12.2734375 C-103.68153181 10.94917396 -104.96995815 9.57144135 -106.25 8.1875 C-106.25 7.5275 -106.25 6.8675 -106.25 6.1875 C-97.61233854 -1.83793892 -88.24355925 -7.64112299 -77.25 -11.8125 C-76.13882812 -12.245625 -75.02765625 -12.67875 -73.8828125 -13.125 C-49.14477312 -21.20272714 -20.4572645 -15.82922761 0 0 Z " fill="#000000" transform="translate(401.25,63.8125)"/>
<path d="M0 0 C10.56 0 21.12 0 32 0 C32 5.28 32 10.56 32 16 C39.92 16 47.84 16 56 16 C56 21.28 56 26.56 56 32 C29.6 32 3.2 32 -24 32 C-24 26.72 -24 21.44 -24 16 C-16.08 16 -8.16 16 0 16 C0 10.72 0 5.44 0 0 Z " fill="#000000" transform="translate(264,448)"/>
<path d="M0 0 C4.35303727 3.13148727 4.35303727 3.13148727 6.14453125 5.25 C6.14453125 9.25 6.14453125 9.25 3.95703125 11.828125 C3.02890625 12.70984375 2.10078125 13.5915625 1.14453125 14.5 C0.21640625 15.39203125 -0.71171875 16.2840625 -1.66796875 17.203125 C-2.38984375 17.87859375 -3.11171875 18.5540625 -3.85546875 19.25 C-4.6753125 18.75628906 -5.49515625 18.26257813 -6.33984375 17.75390625 C-7.4175 17.11324219 -8.49515625 16.47257812 -9.60546875 15.8125 C-10.6728125 15.17441406 -11.74015625 14.53632812 -12.83984375 13.87890625 C-19.97528038 10.02466134 -29.00732293 10.00241048 -36.78515625 12.00390625 C-41.71536577 13.91454976 -45.36125338 16.25385642 -49.85546875 19.25 C-53.48546875 15.62 -57.11546875 11.99 -60.85546875 8.25 C-57.38131916 1.30170082 -50.57435576 -2.35599112 -43.48046875 -5.1875 C-28.94310659 -9.49625425 -12.92505724 -7.92123891 0 0 Z " fill="#000000" transform="translate(378.85546875,86.75)"/>
<path d="M0 0 C4.8846525 2.26787438 7.73212562 5.1153475 10 10 C10.75381535 15.5997712 10.77303575 20.33499991 8.375 25.5 C3.80134327 30.3143755 0.6912538 32.25156236 -6 32.5 C-12.6912538 32.25156236 -15.80134327 30.3143755 -20.375 25.5 C-22.77303575 20.33499991 -22.75381535 15.5997712 -22 10 C-17.52212837 0.3553534 -9.85292056 -1.32635469 0 0 Z " fill="#000000" transform="translate(158,152)"/>
<path d="M0 0 C4.8846525 2.26787438 7.73212562 5.1153475 10 10 C10.75381535 15.5997712 10.77303575 20.33499991 8.375 25.5 C3.80134327 30.3143755 0.6912538 32.25156236 -6 32.5 C-12.6912538 32.25156236 -15.80134327 30.3143755 -20.375 25.5 C-22.77303575 20.33499991 -22.75381535 15.5997712 -22 10 C-17.52212837 0.3553534 -9.85292056 -1.32635469 0 0 Z " fill="#000000" transform="translate(358,112)"/>
</svg>
